<?xml version="1.0" standalone="no"?>
<!DOCTYPE svg PUBLIC "-//W3C//DTD SVG 20010904//EN"
 "http://www.w3.org/TR/2001/REC-SVG-20010904/DTD/svg10.dtd">
<svg version="1.0" xmlns="http://www.w3.org/2000/svg"
 width="225.000000pt" height="225.000000pt" viewBox="0 0 225.000000 225.000000"
 preserveAspectRatio="xMidYMid meet">
<metadata>
Created by potrace 1.10, written by Peter Selinger 2001-2011
</metadata>
<g transform="translate(0.000000,225.000000) scale(0.100000,-0.100000)"
fill="#000000" stroke="none">
<path d="M1098 2149 c-255 -18 -369 -113 -428 -360 -11 -46 -20 -99 -20 -116
0 -44 -33 -66 -87 -57 -92 14 -182 -41 -208 -129 -44 -145 -66 -599 -37 -742
28 -138 95 -203 238 -226 l72 -13 7 -60 c20 -175 51 -251 123 -299 146 -96
367 -43 410 99 6 23 12 91 12 151 0 60 3 112 6 115 7 8 64 -8 77 -21 6 -6 13
-53 17 -105 12 -148 50 -194 183 -217 130 -22 242 13 272 85 14 32 55 288 79
486 9 74 14 197 12 347 l-2 233 39 37 c59 58 81 107 82 183 0 93 -35 160 -127
242 -39 34 -101 103 -138 153 -103 137 -211 202 -354 211 -39 3 -84 6 -101 7
-16 2 -74 0 -127 -4z m346 -59 c80 -27 157 -93 230 -193 24 -34 80 -96 125
-138 93 -88 111 -124 113 -218 1 -76 -8 -97 -68 -163 l-44 -47 0 -223 c0 -215
-3 -262 -36 -523 -24 -201 -40 -289 -58 -324 -25 -47 -73 -65 -176 -65 -71 0
-94 4 -135 24 -66 33 -87 76 -93 187 -5 90 -17 110 -79 131 -27 9 -34 7 -51
-11 -17 -19 -20 -37 -21 -127 -1 -162 -12 -192 -87 -236 -81 -47 -210 -45
-286 6 -67 44 -94 102 -109 233 -15 127 -21 136 -111 147 -98 12 -164 55 -193
124 -32 76 -44 336 -25 526 5 52 12 118 15 145 7 66 30 151 49 179 25 39 94
66 169 66 59 0 68 3 82 24 9 14 20 51 25 83 21 141 59 240 116 302 61 69 111
91 254 115 14 3 93 3 175 2 126 -3 161 -7 219 -26z"/>
<path d="M1025 2049 c-28 -4 -67 -15 -88 -24 -43 -18 -117 -81 -117 -100 0 -8
-6 -20 -13 -27 -14 -13 -16 -21 -42 -115 -67 -244 -81 -1070 -24 -1408 15 -89
27 -113 78 -148 39 -27 56 -32 109 -34 49 -1 69 3 85 17 12 10 33 27 46 37 21
17 24 29 27 114 7 160 11 203 25 232 12 27 16 28 58 24 26 -3 88 -16 139 -31
51 -14 118 -26 150 -27 l57 -2 -50 -24 c-27 -12 -55 -23 -62 -23 -21 0 -33
-37 -33 -105 0 -89 17 -119 74 -134 61 -15 130 -14 170 3 27 11 35 22 44 57
20 79 62 391 73 544 12 150 5 369 -11 395 -8 13 -11 13 -115 -16 -93 -26 -232
-32 -326 -14 -69 13 -152 54 -193 95 -91 90 -102 335 -21 428 51 58 218 106
399 116 72 4 121 10 123 17 6 17 -57 79 -107 107 -81 45 -143 57 -279 56 -69
-1 -149 -5 -176 -10z m366 -29 c59 -18 179 -97 179 -118 0 -4 -33 -6 -73 -4
-149 8 -377 -50 -434 -110 -59 -63 -68 -91 -68 -218 0 -110 1 -118 33 -183 37
-75 84 -114 180 -150 48 -18 79 -22 202 -22 121 0 157 4 219 22 41 13 76 22
77 20 10 -11 13 -272 5 -386 -16 -201 -69 -553 -86 -570 -19 -19 -120 -26
-173 -12 -53 15 -64 39 -60 129 l3 65 49 17 c45 15 106 67 106 90 0 5 -13 4
-31 -2 -44 -15 -146 -3 -264 31 -112 32 -144 29 -164 -17 -15 -31 -31 -168
-31 -263 0 -55 -4 -69 -22 -87 -67 -62 -188 -51 -246 22 -41 53 -64 319 -63
751 0 449 28 713 87 845 60 132 139 168 380 169 105 1 145 -3 195 -19z"/>
<path d="M1355 1804 c-60 -10 -149 -36 -191 -56 -59 -27 -84 -80 -84 -176 0
-119 43 -206 120 -239 129 -55 247 -57 430 -6 276 77 302 323 48 447 -48 24
-70 27 -174 31 -65 2 -132 1 -149 -1z m279 -43 c68 -24 133 -70 165 -117 34
-49 39 -128 12 -172 -42 -65 -161 -122 -301 -143 -187 -27 -336 15 -382 109
-19 38 -23 63 -23 134 0 114 13 133 119 170 143 51 299 58 410 19z"/>
<path d="M491 1512 c-45 -24 -58 -62 -76 -222 -17 -142 -20 -427 -6 -513 12
-68 44 -131 76 -145 12 -6 48 -13 79 -17 49 -6 59 -5 71 11 9 12 12 33 9 54
-14 105 -16 421 -4 607 9 141 10 210 3 222 -15 24 -109 26 -152 3z m132 -89
c-4 -49 -8 -247 -8 -440 0 -399 8 -366 -79 -342 -102 28 -121 100 -113 424 5
202 24 361 48 407 14 26 44 37 107 37 l53 1 -8 -87z"/>
</g>
</svg>
