<?xml version="1.0" standalone="no"?>
<!DOCTYPE svg PUBLIC "-//W3C//DTD SVG 20010904//EN"
 "http://www.w3.org/TR/2001/REC-SVG-20010904/DTD/svg10.dtd">
<svg version="1.0" xmlns="http://www.w3.org/2000/svg"
 width="200.000000pt" height="252.000000pt" viewBox="0 0 200.000000 252.000000"
 preserveAspectRatio="xMidYMid meet">
<metadata>
Created by potrace 1.10, written by Peter Selinger 2001-2011
</metadata>
<g transform="translate(0.000000,252.000000) scale(0.100000,-0.100000)"
fill="#000000" stroke="none">
<path d="M723 2405 c-104 -32 -170 -92 -236 -215 -42 -78 -52 -110 -71 -218
-8 -46 -22 -95 -31 -109 -20 -30 -82 -58 -150 -68 -91 -13 -152 -58 -174 -128
-5 -18 -12 -84 -15 -147 -31 -637 -15 -804 88 -898 49 -45 96 -62 172 -62 69
0 80 -15 88 -120 4 -47 10 -106 13 -133 5 -44 4 -47 -18 -48 -13 0 -58 -12
-99 -27 -74 -26 -75 -28 -78 -64 -4 -49 14 -60 158 -92 205 -45 328 -56 638
-56 308 0 473 13 636 51 138 33 195 66 181 109 -11 35 -174 95 -196 73 -7 -7
7 -15 43 -23 66 -16 128 -46 128 -63 0 -31 -153 -80 -315 -102 -189 -25 -663
-34 -810 -15 -38 5 -90 12 -115 15 -64 9 -260 52 -293 64 -30 12 -45 37 -30
52 15 15 168 70 171 61 18 -53 42 -79 100 -108 116 -57 215 -68 323 -34 117
36 185 98 196 177 l5 38 57 0 c55 0 56 -1 77 -40 32 -62 71 -79 191 -83 139
-6 186 3 228 39 43 39 81 117 95 200 79 478 83 513 84 679 0 91 -3 201 -8 245
l-8 80 43 80 c44 79 44 81 44 180 0 88 -3 107 -27 158 -34 73 -238 358 -301
419 -53 53 -162 110 -252 133 -78 20 -469 20 -532 0z m522 -30 c87 -22 193
-77 245 -127 65 -63 270 -352 298 -422 21 -51 24 -72 20 -146 -4 -79 -8 -93
-47 -164 -41 -75 -42 -80 -37 -145 3 -36 8 -128 12 -203 l6 -138 -39 0 -40 0
-7 182 c-6 176 -8 184 -31 207 l-24 24 -133 -34 c-117 -30 -148 -34 -258 -34
-70 1 -143 6 -167 13 -74 22 -135 71 -170 136 -43 83 -56 152 -52 293 6 172
21 189 200 224 73 14 143 19 262 19 165 0 187 5 187 38 0 47 -163 176 -263
208 -36 11 -105 18 -223 21 -168 5 -173 5 -227 -20 -139 -63 -217 -205 -262
-472 -3 -22 -11 -62 -16 -90 -5 -27 -12 -200 -16 -382 l-6 -333 -30 0 -30 0 5
322 c6 371 9 358 -83 358 -125 0 -170 -90 -183 -365 -9 -181 -17 -309 -19
-311 -1 -1 -15 -4 -31 -8 l-28 -7 6 238 c10 333 13 381 33 422 20 40 77 76
133 86 113 18 141 32 175 85 25 39 28 50 46 153 33 193 150 342 296 376 68 16
431 13 498 -4z m-111 -85 c96 -14 187 -61 261 -135 l60 -60 -200 -6 c-422 -12
-477 -54 -463 -352 11 -205 85 -322 239 -374 42 -14 84 -18 184 -18 114 1 145
5 258 34 79 21 132 30 138 24 5 -5 12 -90 15 -188 8 -210 -3 -327 -48 -525
-23 -101 -30 -159 -30 -233 0 -137 -4 -141 -140 -145 -89 -3 -107 -1 -126 15
-33 26 -45 90 -31 168 l11 63 62 31 c34 16 71 41 83 53 l22 23 -92 -6 c-51 -4
-128 -3 -172 2 -185 20 -210 21 -228 7 -26 -20 -36 -78 -37 -203 0 -139 -20
-187 -90 -223 -38 -20 -56 -23 -118 -19 -80 4 -117 23 -139 69 -55 111 -83
1221 -39 1488 29 168 48 243 81 316 40 88 91 145 158 178 47 24 61 26 181 26
72 0 162 -5 200 -10z m-757 -622 c6 -8 7 -42 2 -88 -4 -41 -8 -198 -8 -347 0
-261 1 -273 19 -273 10 0 22 -4 25 -10 3 -5 11 -10 16 -10 6 0 8 4 5 9 -3 5 1
14 9 21 20 17 9 30 -26 30 -16 0 -29 4 -29 9 0 7 37 8 61 3 13 -4 19 -35 9
-47 -8 -9 -8 -15 0 -20 18 -11 11 -25 -14 -25 -13 0 -29 7 -36 15 -28 33 -33
15 -27 -87 8 -134 0 -153 -66 -152 -85 1 -140 63 -152 171 -23 218 -4 607 37
740 15 50 51 73 113 73 30 0 57 -5 62 -12z m-247 -658 c11 -7 7 -10 -17 -10
-17 0 -34 -4 -38 -9 -7 -12 26 -31 57 -32 13 0 17 -3 10 -6 -10 -4 -10 -8 -1
-20 11 -12 6 -14 -31 -11 -43 3 -45 4 -47 38 -2 49 31 74 67 50z m1583 -7
c-51 -4 -53 -5 -53 -34 0 -18 5 -29 14 -29 9 0 12 8 8 25 -4 22 -1 25 26 25
42 0 51 -19 21 -43 -16 -13 -18 -18 -6 -14 9 4 17 2 17 -4 0 -6 -18 -9 -42 -7
-39 3 -43 6 -46 31 -6 50 2 57 60 55 l53 -2 -52 -3z m-1576 -24 c-14 -8 -22
-8 -30 0 -8 8 -3 11 19 11 25 -1 27 -2 11 -11z m293 1 c0 -5 -9 -10 -21 -10
-11 0 -17 5 -14 10 3 6 13 10 21 10 8 0 14 -4 14 -10z m57 -42 c-3 -8 -6 -5
-6 6 -1 11 2 17 5 13 3 -3 4 -12 1 -19z m-13 -196 c7 -182 31 -407 46 -448 26
-67 91 -103 188 -104 104 0 159 31 198 115 21 43 24 65 24 161 0 137 6 171 32
180 11 3 59 0 106 -7 48 -7 126 -13 175 -13 72 -1 84 -3 70 -14 -9 -6 -22 -12
-28 -12 -6 0 -22 -11 -35 -25 -21 -22 -24 -38 -28 -115 -4 -79 -2 -93 18 -125
12 -19 30 -40 40 -45 10 -6 62 -10 115 -10 158 0 185 28 185 191 0 65 9 130
30 226 17 73 30 144 30 158 0 43 8 51 45 47 21 -3 35 -10 35 -18 0 -12 -44
-294 -70 -452 -6 -35 -24 -91 -40 -126 -38 -84 -56 -91 -226 -91 -105 0 -136
4 -156 17 -44 29 -65 77 -78 178 -14 109 -25 138 -59 153 -20 10 -27 7 -52
-21 -29 -32 -29 -34 -29 -153 0 -92 -4 -129 -17 -156 -53 -112 -263 -162 -427
-103 -39 14 -84 39 -101 55 l-32 30 -6 147 c-9 202 -23 228 -129 228 -66 0
-124 26 -165 73 -36 41 -50 82 -59 175 l-7 62 30 0 c32 0 43 -17 43 -68 0 -31
32 -92 67 -124 35 -33 73 -48 123 -48 31 0 43 6 59 29 18 24 21 44 21 123 l0
95 28 -5 29 -4 7 -156z m624 -214 c7 -7 12 -28 12 -47 0 -35 9 -82 24 -128 7
-22 5 -23 -43 -23 l-51 0 0 93 c0 90 8 117 35 117 6 0 16 -5 23 -12z"/>
<path d="M1086 1994 c-67 -14 -131 -33 -146 -44 -71 -50 -93 -198 -46 -304 33
-75 93 -137 173 -177 66 -34 69 -34 197 -34 141 0 214 16 333 72 260 124 171
422 -149 498 -92 22 -224 18 -362 -11z m408 -33 c154 -55 226 -134 226 -249 0
-74 -41 -132 -122 -170 -124 -59 -201 -77 -333 -77 -108 0 -125 3 -175 26
-144 67 -218 198 -190 335 19 91 43 108 185 139 150 31 313 30 409 -4z"/>
<path d="M88 943 c6 -2 18 -2 25 0 6 3 1 5 -13 5 -14 0 -19 -2 -12 -5z"/>
<path d="M1690 970 c0 -5 9 -10 20 -10 11 0 20 5 20 10 0 6 -9 10 -20 10 -11
0 -20 -4 -20 -10z"/>
</g>
</svg>
