<?xml version="1.0" standalone="no"?>
<!DOCTYPE svg PUBLIC "-//W3C//DTD SVG 20010904//EN"
 "http://www.w3.org/TR/2001/REC-SVG-20010904/DTD/svg10.dtd">
<svg version="1.0" xmlns="http://www.w3.org/2000/svg"
 width="225.000000pt" height="225.000000pt" viewBox="0 0 225.000000 225.000000"
 preserveAspectRatio="xMidYMid meet">
<metadata>
Created by potrace 1.10, written by Peter Selinger 2001-2011
</metadata>
<g transform="translate(0.000000,225.000000) scale(0.100000,-0.100000)"
fill="#000000" stroke="none">
<path d="M2041 1966 l-116 -114 -70 35 c-151 77 -304 113 -479 113 -180 0
-328 -43 -465 -135 -188 -124 -302 -293 -491 -725 -142 -322 -183 -394 -317
-547 -93 -106 -107 -131 -94 -166 19 -48 288 -157 498 -201 202 -42 296 -51
543 -50 348 0 558 37 755 133 157 77 256 174 325 316 216 447 -100 975 -584
975 -233 0 -435 -138 -506 -345 -42 -122 -18 -304 53 -397 69 -91 223 -154
356 -146 133 8 224 62 281 170 41 76 46 158 14 223 -35 72 -120 108 -157 67
-28 -31 -21 -68 18 -98 46 -35 48 -80 6 -147 -58 -91 -178 -117 -306 -67 -115
45 -158 114 -159 260 -1 91 22 145 96 226 194 212 563 158 738 -109 110 -168
121 -404 27 -581 -97 -182 -347 -315 -627 -333 -78 -5 -110 -2 -180 16 -276
69 -460 249 -531 518 -31 113 -37 325 -14 429 60 272 272 497 536 570 48 14
97 18 199 17 171 -1 252 -21 415 -103 66 -33 128 -60 139 -60 10 0 79 60 159
139 124 122 140 142 140 171 0 20 -7 38 -18 46 -41 30 -64 18 -184 -100z m173
62 c9 -15 -8 -36 -113 -142 -68 -68 -134 -130 -147 -136 -20 -11 -31 -8 -88
24 -290 162 -621 177 -854 39 -172 -102 -305 -268 -370 -461 -24 -71 -26 -90
-26 -247 0 -144 4 -182 22 -250 44 -158 138 -310 246 -397 163 -131 371 -189
577 -158 409 59 653 311 637 655 -8 160 -67 288 -188 405 -90 88 -238 149
-362 150 -112 0 -229 -49 -314 -134 -85 -86 -114 -151 -114 -259 0 -106 20
-167 74 -222 84 -87 259 -119 356 -65 65 37 110 107 110 174 0 45 -4 56 -30
81 -55 53 -22 96 43 56 44 -27 57 -58 57 -139 0 -143 -106 -247 -265 -259
-123 -9 -271 41 -335 114 -62 70 -75 113 -75 253 0 118 2 128 29 184 16 32 56
87 90 121 167 171 431 203 664 80 300 -157 419 -554 262 -870 -143 -287 -475
-418 -1055 -419 -255 0 -383 14 -592 64 -180 43 -413 139 -426 175 -3 6 35 59
85 115 140 160 189 243 327 559 98 222 173 370 236 467 63 94 185 214 271 267
254 154 605 156 896 6 42 -21 79 -39 83 -39 4 0 60 52 126 116 119 115 140
127 163 92z"/>
<path d="M488 1033 c-8 -10 -44 -80 -81 -156 -67 -140 -135 -246 -208 -327
-22 -25 -44 -52 -49 -61 -16 -29 17 -56 113 -93 176 -68 374 -110 582 -122 86
-6 102 -4 114 10 17 20 4 37 -54 74 -112 70 -208 179 -271 307 -34 70 -84 244
-84 295 0 38 -20 90 -34 90 -7 0 -20 -8 -28 -17z m35 -70 c14 -156 81 -328
177 -456 52 -67 164 -164 220 -189 16 -7 30 -15 30 -19 0 -8 -250 17 -351 36
-152 27 -429 115 -429 136 0 3 22 31 50 62 85 99 137 179 210 328 38 79 70
149 70 156 0 7 4 13 9 13 4 0 11 -30 14 -67z"/>
</g>
</svg>
