<?xml version="1.0" standalone="no"?>
<!DOCTYPE svg PUBLIC "-//W3C//DTD SVG 20010904//EN"
 "http://www.w3.org/TR/2001/REC-SVG-20010904/DTD/svg10.dtd">
<svg version="1.0" xmlns="http://www.w3.org/2000/svg"
 width="225.000000pt" height="225.000000pt" viewBox="0 0 225.000000 225.000000"
 preserveAspectRatio="xMidYMid meet">
<metadata>
Created by potrace 1.10, written by Peter Selinger 2001-2011
</metadata>
<g transform="translate(0.000000,225.000000) scale(0.100000,-0.100000)"
fill="#000000" stroke="none">
<path d="M680 2020 c-109 -17 -169 -47 -245 -124 -57 -57 -82 -93 -127 -182
-66 -131 -93 -211 -84 -248 6 -23 11 -26 52 -26 50 0 52 2 162 129 64 74 115
102 202 111 97 11 103 5 95 -88 -44 -535 -87 -696 -249 -936 -71 -107 -91
-161 -84 -241 10 -116 106 -178 227 -145 93 25 177 145 221 315 38 149 82 520
109 929 6 82 14 153 18 157 10 10 350 15 360 6 4 -4 2 -67 -5 -140 -7 -73 -19
-211 -28 -307 -30 -342 -17 -611 38 -756 33 -87 124 -177 203 -199 167 -49
351 43 433 215 36 77 71 208 74 280 3 62 -16 83 -72 78 -32 -3 -38 -8 -70 -70
-47 -92 -76 -119 -133 -125 -61 -7 -90 1 -131 38 -63 55 -71 100 -69 374 1
235 30 587 50 605 4 5 95 12 202 17 242 11 231 2 231 173 0 101 -3 121 -19
141 l-19 24 -644 1 c-353 1 -668 -2 -698 -6z m1338 -42 c15 -15 16 -215 2
-238 -7 -12 -45 -16 -194 -20 -237 -6 -229 0 -250 -177 -40 -323 -45 -679 -11
-776 22 -63 91 -132 144 -147 87 -23 165 24 216 129 28 60 58 83 84 66 29 -18
-4 -204 -56 -314 -34 -72 -108 -145 -181 -179 -47 -22 -71 -27 -137 -27 -92 0
-136 19 -197 82 -90 94 -118 217 -118 513 0 113 2 223 4 245 3 22 10 99 16
170 6 72 13 148 15 170 3 22 8 76 11 121 7 80 6 81 -22 103 -27 21 -35 22
-190 19 -155 -3 -164 -4 -187 -26 -27 -25 -26 -19 -42 -252 -33 -475 -81 -808
-137 -954 -60 -154 -174 -227 -283 -182 -49 21 -75 68 -75 136 1 74 15 109 87
215 79 117 127 214 157 317 44 152 90 506 84 642 -3 60 -6 71 -28 88 -23 17
-33 18 -100 8 -92 -13 -144 -42 -207 -117 -92 -108 -109 -123 -142 -123 -39 0
-40 16 -6 105 63 167 160 308 249 360 91 53 98 54 816 54 506 1 669 -2 678
-11z"/>
</g>
</svg>
