<?xml version="1.0" standalone="no"?>
<!DOCTYPE svg PUBLIC "-//W3C//DTD SVG 20010904//EN"
 "http://www.w3.org/TR/2001/REC-SVG-20010904/DTD/svg10.dtd">
<svg version="1.0" xmlns="http://www.w3.org/2000/svg"
 width="291.000000pt" height="173.000000pt" viewBox="0 0 291.000000 173.000000"
 preserveAspectRatio="xMidYMid meet">
<metadata>
Created by potrace 1.10, written by Peter Selinger 2001-2011
</metadata>
<g transform="translate(0.000000,173.000000) scale(0.100000,-0.100000)"
fill="#000000" stroke="none">
<path d="M1414 1664 c-21 -33 -70 -110 -111 -171 l-72 -113 219 0 c121 0 220
-2 220 -5 0 -3 -47 -77 -105 -165 -58 -89 -105 -163 -105 -166 0 -2 97 -4 215
-4 118 0 215 2 215 4 0 4 -425 661 -436 675 -2 2 -20 -23 -40 -55z m125 -126
l80 -123 -161 -3 c-88 -1 -163 -1 -165 2 -6 6 148 246 158 246 5 0 44 -55 88
-122z m221 -340 l80 -123 -161 -3 c-89 -1 -164 -1 -166 1 -5 5 155 247 162
247 3 0 42 -55 85 -122z"/>
<path d="M63 1450 c49 -152 61 -179 80 -183 12 -3 182 -25 378 -49 l356 -43
-1 -42 c-1 -51 34 -43 -371 -79 -171 -15 -312 -29 -314 -30 -1 -2 29 -63 68
-137 l71 -135 276 104 c151 57 277 104 279 104 10 0 35 -74 28 -80 -5 -4 -101
-76 -215 -159 l-207 -152 102 -68 101 -68 144 173 145 174 31 -27 c17 -14 30
-30 28 -35 -1 -4 -35 -82 -76 -172 l-74 -164 91 -21 c50 -12 94 -18 97 -14 4
5 20 79 36 165 l29 158 30 -6 c44 -8 97 31 109 79 15 58 -2 81 -91 122 -92 42
-153 98 -185 169 -34 77 -30 191 11 318 18 54 36 100 41 103 6 3 10 11 10 18
0 19 -100 -85 -128 -134 l-27 -45 -435 157 c-239 87 -443 162 -455 167 -18 8
-14 -9 38 -168z m441 -40 c225 -82 413 -147 418 -144 5 3 22 27 38 52 34 54
35 54 15 -12 -21 -69 -20 -208 2 -270 26 -73 103 -152 186 -192 84 -40 97 -51
97 -79 0 -38 -31 -67 -72 -67 -61 0 -68 -11 -98 -167 -15 -78 -30 -145 -34
-148 -9 -10 -116 17 -116 29 0 6 29 76 65 156 36 79 65 150 65 157 0 8 -19 30
-42 49 -36 31 -44 34 -59 24 -10 -7 -77 -84 -149 -171 -85 -102 -135 -155
-143 -150 -47 29 -122 86 -122 92 0 5 83 70 185 146 102 75 189 145 194 155
12 25 1 63 -27 96 l-23 27 -268 -102 c-147 -55 -271 -99 -274 -97 -12 7 -107
194 -102 199 5 4 140 19 306 33 205 17 326 33 339 44 22 18 20 102 -3 122 -9
9 -39 18 -67 21 -119 13 -632 78 -652 82 -17 4 -29 27 -62 127 -46 139 -49
153 -23 143 9 -3 201 -74 426 -155z"/>
<path d="M2440 1456 l-445 -163 -18 34 c-19 35 -142 168 -133 143 2 -8 17 -44
32 -80 14 -35 33 -101 41 -147 31 -184 -31 -300 -203 -380 -41 -18 -78 -42
-84 -53 -19 -35 -11 -78 19 -112 25 -29 35 -33 75 -32 36 1 46 -3 46 -15 0
-17 52 -304 56 -309 2 -2 45 6 97 18 l95 21 -65 142 c-102 225 -96 200 -58
230 l33 26 143 -173 144 -172 102 67 102 67 -201 148 c-111 82 -207 154 -215
159 -12 9 -12 16 2 48 8 20 17 37 19 37 3 0 431 -161 528 -199 27 -10 27 -9
98 126 39 74 70 136 68 137 -2 2 -142 15 -313 30 -405 36 -370 28 -371 79 l-1
42 356 43 c196 24 366 46 378 49 18 4 30 30 73 164 27 87 53 165 56 174 3 8 2
15 -2 14 -5 0 -209 -74 -454 -163z m410 105 c0 -5 -7 -27 -15 -50 -8 -23 -15
-43 -15 -46 -1 -6 -2 -9 -30 -98 -17 -51 -27 -68 -43 -72 -12 -2 -173 -23
-357 -45 -184 -22 -345 -45 -357 -50 -20 -8 -23 -17 -23 -65 0 -71 15 -81 140
-90 52 -4 106 -8 120 -10 14 -2 108 -11 210 -21 102 -9 186 -18 188 -19 4 -3
-96 -205 -102 -205 -4 0 -76 27 -333 123 -114 43 -210 74 -219 70 -9 -3 -25
-26 -35 -50 -23 -54 -18 -65 62 -123 30 -22 59 -43 64 -47 6 -5 65 -49 132
-98 67 -50 122 -93 123 -96 0 -3 -31 -27 -70 -52 l-70 -47 -127 153 c-71 85
-138 161 -149 170 -20 15 -24 14 -63 -19 -22 -20 -41 -42 -41 -50 0 -7 29 -80
65 -160 36 -81 65 -150 65 -155 0 -12 -109 -34 -118 -23 -5 5 -18 63 -31 129
-33 178 -35 181 -105 184 -41 2 -66 27 -66 67 0 32 4 35 84 73 100 48 164 113
196 199 27 70 24 206 -5 302 -3 8 3 5 13 -8 9 -13 26 -34 37 -47 l20 -24 300
108 c165 60 354 129 420 154 135 50 135 50 135 38z"/>
<path d="M1118 1205 l-107 -165 219 0 219 0 -107 165 c-59 90 -109 164 -112
165 -3 0 -54 -74 -112 -165z m212 -31 c30 -48 57 -92 58 -96 2 -4 -69 -8 -157
-8 -89 0 -161 3 -161 6 0 3 35 60 78 125 l77 119 25 -29 c14 -15 50 -68 80
-117z"/>
<path d="M1428 902 c-9 -32 -33 -85 -53 -117 -19 -32 -35 -67 -35 -77 0 -32
-27 -84 -64 -126 l-36 -40 52 -30 c29 -16 63 -40 75 -54 20 -21 21 -29 13 -85
-4 -33 -13 -70 -19 -80 -8 -16 -1 -45 34 -137 25 -65 45 -124 45 -132 0 -39
19 0 58 119 43 131 43 132 28 176 -34 93 -14 139 81 193 l54 31 -24 26 c-37
40 -56 73 -72 128 -8 27 -27 68 -42 89 -30 44 -63 125 -63 154 0 38 -15 20
-32 -38z m42 -77 c0 -7 10 -24 21 -39 12 -15 34 -60 49 -101 15 -40 37 -87 50
-105 12 -17 21 -32 19 -34 -2 -1 -21 -13 -41 -25 -61 -36 -78 -65 -78 -131 0
-31 5 -71 11 -89 10 -27 7 -43 -16 -109 -15 -42 -30 -80 -34 -84 -4 -4 -21 31
-38 78 -29 80 -30 88 -17 120 8 18 14 58 14 87 0 59 -11 77 -82 130 l-36 28
33 49 c18 26 36 65 39 87 4 21 23 63 42 95 19 31 34 62 34 68 0 10 3 10 15 0
8 -7 15 -18 15 -25z"/>
<path d="M1237 418 c-9 -7 -36 -57 -61 -110 l-45 -97 -123 -3 c-160 -4 -162
-10 -29 -118 56 -44 101 -77 101 -72 0 5 -3 12 -7 16 -7 7 -43 96 -43 106 0 3
36 5 80 5 89 0 86 4 54 -73 -12 -31 -9 -29 56 30 39 34 70 70 70 80 0 19 -41
35 -59 23 -19 -11 -12 5 39 84 28 43 50 83 50 89 0 16 -37 52 -53 52 -7 0 -21
-6 -30 -12z m43 -44 c0 -9 -18 -45 -40 -80 -22 -35 -40 -72 -40 -83 0 -23 34
-45 53 -35 6 4 2 -4 -10 -17 l-23 -23 -23 22 c-13 12 -30 22 -38 22 -10 0 0
30 36 105 35 75 54 105 67 105 10 0 18 -7 18 -16z m-260 -213 c0 -6 -4 -12
-10 -16 -5 -3 -7 -12 -3 -20 8 -23 -8 -17 -47 15 l-35 29 48 1 c26 0 47 -4 47
-9z"/>
<path d="M1612 414 c-32 -22 -28 -47 21 -122 24 -37 46 -72 49 -78 5 -7 -3 -9
-21 -6 -17 2 -32 -2 -40 -12 -11 -13 -4 -26 55 -86 37 -38 69 -68 71 -67 2 2
-4 20 -12 40 -25 60 -23 62 65 62 44 0 80 -1 80 -2 0 0 -14 -31 -30 -68 -17
-37 -25 -63 -18 -58 87 66 185 148 191 159 16 28 -5 34 -127 34 l-123 0 -44
96 c-37 83 -67 124 -89 124 -3 0 -16 -7 -28 -16z m72 -76 c13 -29 35 -77 49
-105 23 -48 23 -53 8 -53 -10 0 -26 -9 -36 -20 -14 -16 -21 -17 -32 -8 -12 9
-9 15 14 34 l27 22 -47 77 c-52 86 -57 105 -26 105 15 0 26 -14 43 -52z m255
-200 c-30 -25 -34 -27 -38 -11 -2 10 -7 23 -13 30 -7 9 1 13 29 15 56 5 61 -2
22 -34z"/>
</g>
</svg>
